<?xml version="1.0" encoding="UTF-8" standalone="no"?>
<!DOCTYPE svg PUBLIC "-//W3C//DTD SVG 1.1//EN"
 "http://www.w3.org/Graphics/SVG/1.1/DTD/svg11.dtd">
<!-- Generated by graphviz version 15.1.1 (0)
 -->
<!-- Title: BasicWorkflow.Incident Pages: 1 -->
<svg width="625pt" height="500pt"
 viewBox="0.00 0.00 625.00 500.00" xmlns="http://www.w3.org/2000/svg" xmlns:xlink="http://www.w3.org/1999/xlink">
<g id="graph0" class="graph" transform="scale(1 1) rotate(0) translate(21.6 478.7)">
<title>BasicWorkflow.Incident</title>
<polygon fill="#1e1e2e" stroke="none" points="-21.6,21.6 -21.6,-478.7 602.95,-478.7 602.95,21.6 -21.6,21.6"/>
<!-- start -->
<g id="node1" class="node">
<title>start</title>
<ellipse fill="#f8fafc" stroke="#f8fafc" stroke-width="2" cx="397.14" cy="-449.9" rx="7.2" ry="7.2"/>
</g>
<!-- step_triaging -->
<g id="node2" class="node">
<title>step_triaging</title>
<path fill="#1e3a8a" stroke="#93c5fd" stroke-width="2" d="M438.17,-397.7C438.17,-397.7 356.12,-397.7 356.12,-397.7 350.12,-397.7 344.12,-391.7 344.12,-385.7 344.12,-385.7 344.12,-361.55 344.12,-361.55 344.12,-355.55 350.12,-349.55 356.12,-349.55 356.12,-349.55 438.17,-349.55 438.17,-349.55 444.17,-349.55 450.17,-355.55 450.17,-361.55 450.17,-361.55 450.17,-385.7 450.17,-385.7 450.17,-391.7 444.17,-397.7 438.17,-397.7"/>
<text xml:space="preserve" text-anchor="middle" x="397.14" y="-377.2" font-family="Helvetica,sans-Serif" font-size="14.00" fill="#f8fafc">triaging</text>
<text xml:space="preserve" text-anchor="middle" x="397.14" y="-362.2" font-family="Helvetica,sans-Serif" font-size="14.00" fill="#f8fafc">⚙️ automatic</text>
</g>
<!-- start&#45;&gt;step_triaging -->
<g id="edge1" class="edge">
<title>start&#45;&gt;step_triaging</title>
<path fill="none" stroke="#f8fafc" stroke-width="1.5" d="M397.14,-441.78C397.14,-434.45 397.14,-422.46 397.14,-410.62"/>
<polygon fill="#f8fafc" stroke="#f8fafc" stroke-width="1.5" points="400.64,-410.82 397.14,-400.82 393.64,-410.82 400.64,-410.82"/>
</g>
<!-- step_investigating -->
<g id="node3" class="node">
<title>step_investigating</title>
<path fill="#78350f" stroke="#fcd34d" stroke-width="2" d="M400.54,-290.55C400.54,-290.55 179.74,-290.55 179.74,-290.55 173.74,-290.55 167.74,-284.55 167.74,-278.55 167.74,-278.55 167.74,-222.15 167.74,-222.15 167.74,-216.15 173.74,-210.15 179.74,-210.15 179.74,-210.15 400.54,-210.15 400.54,-210.15 406.54,-210.15 412.54,-216.15 412.54,-222.15 412.54,-222.15 412.54,-278.55 412.54,-278.55 412.54,-284.55 406.54,-290.55 400.54,-290.55"/>
<text xml:space="preserve" text-anchor="middle" x="290.14" y="-270.05" font-family="Helvetica,sans-Serif" font-size="14.00" fill="#f8fafc">investigating</text>
<text xml:space="preserve" text-anchor="middle" x="290.14" y="-255.05" font-family="Helvetica,sans-Serif" font-size="14.00" fill="#f8fafc">✋ manual</text>
<text xml:space="preserve" text-anchor="middle" x="290.14" y="-236.3" font-family="Helvetica,sans-Serif" font-size="14.00" fill="#f8fafc">—</text>
<text xml:space="preserve" text-anchor="middle" x="290.14" y="-221.3" font-family="Helvetica,sans-Serif" font-size="14.00" fill="#f8fafc">↻ every 1 hour: send_status_update</text>
</g>
<!-- step_triaging&#45;&gt;step_investigating -->
<g id="edge2" class="edge">
<title>step_triaging&#45;&gt;step_investigating</title>
<path fill="none" stroke="#93c5fd" stroke-width="3" d="M376,-348.66C364.21,-335.3 349.06,-318.13 334.78,-301.94"/>
<polygon fill="#93c5fd" stroke="#93c5fd" stroke-width="3" points="337.81,-300.08 328.57,-294.9 332.56,-304.72 337.81,-300.08"/>
<text xml:space="preserve" text-anchor="middle" x="405.5" y="-315.78" font-family="Helvetica,sans-Serif" font-size="12.00" fill="#f8fafc">⚙ classify_severity</text>
</g>
<!-- step_triage_failed -->
<g id="node6" class="node">
<title>step_triage_failed</title>
<polygon fill="#7f1d1d" stroke="#fca5a5" stroke-width="2" points="555.29,-268.35 452.99,-268.35 452.99,-232.35 555.29,-232.35 555.29,-268.35"/>
<polygon fill="none" stroke="#fca5a5" stroke-width="2" points="559.29,-272.35 448.99,-272.35 448.99,-228.35 559.29,-228.35 559.29,-272.35"/>
<text xml:space="preserve" text-anchor="middle" x="504.14" y="-244.55" font-family="Helvetica,sans-Serif" font-size="14.00" fill="#f8fafc">triage_failed</text>
</g>
<!-- step_triaging&#45;&gt;step_triage_failed -->
<g id="edge3" class="edge">
<title>step_triaging&#45;&gt;step_triage_failed</title>
<path fill="none" stroke="#fca5a5" stroke-width="1.5" d="M438.68,-348.74C447.41,-342.55 456.09,-335.39 463.14,-327.55 474.56,-314.86 483.92,-298.42 490.8,-284.07"/>
<polygon fill="#fca5a5" stroke="#fca5a5" stroke-width="1.5" points="493.89,-285.73 494.84,-275.18 487.51,-282.83 493.89,-285.73"/>
<text xml:space="preserve" text-anchor="middle" x="503.92" y="-316.15" font-family="Helvetica,sans-Serif" font-size="12.00" fill="#f8fafc">✖ on_error</text>
</g>
<!-- step_escalated -->
<g id="node4" class="node">
<title>step_escalated</title>
<path fill="#78350f" stroke="#fcd34d" stroke-width="2" d="M244.04,-151.15C244.04,-151.15 176.24,-151.15 176.24,-151.15 170.24,-151.15 164.24,-145.15 164.24,-139.15 164.24,-139.15 164.24,-115 164.24,-115 164.24,-109 170.24,-103 176.24,-103 176.24,-103 244.04,-103 244.04,-103 250.04,-103 256.04,-109 256.04,-115 256.04,-115 256.04,-139.15 256.04,-139.15 256.04,-145.15 250.04,-151.15 244.04,-151.15"/>
<text xml:space="preserve" text-anchor="middle" x="210.14" y="-130.65" font-family="Helvetica,sans-Serif" font-size="14.00" fill="#f8fafc">escalated</text>
<text xml:space="preserve" text-anchor="middle" x="210.14" y="-115.65" font-family="Helvetica,sans-Serif" font-size="14.00" fill="#f8fafc">✋ manual</text>
</g>
<!-- step_investigating&#45;&gt;step_escalated -->
<g id="edge4" class="edge">
<title>step_investigating&#45;&gt;step_escalated</title>
<path fill="none" stroke="#f8fafc" stroke-width="1.5" d="M167.09,-238.43C99.08,-229.57 24.17,-214.14 3.14,-188.15 -1.05,-182.97 -1.04,-178.34 3.14,-173.15 21.48,-150.38 96.87,-138.51 151.38,-132.78"/>
<polygon fill="#f8fafc" stroke="#f8fafc" stroke-width="1.5" points="151.5,-136.29 161.1,-131.81 150.8,-129.32 151.5,-136.29"/>
<text xml:space="preserve" text-anchor="middle" x="25.64" y="-175.62" font-family="Helvetica,sans-Serif" font-size="12.00" fill="#f8fafc">escalate</text>
</g>
<!-- step_investigating&#45;&gt;step_escalated -->
<g id="edge6" class="edge">
<title>step_investigating&#45;&gt;step_escalated</title>
<path fill="none" stroke="#fcd34d" stroke-width="1.5" stroke-dasharray="5,2" d="M166.85,-224.53C131.57,-214.78 99.76,-202.48 89.14,-188.15 68.66,-160.51 111.37,-144.82 151.58,-136.46"/>
<polygon fill="#fcd34d" stroke="#fcd34d" stroke-width="1.5" points="152.24,-139.9 161.4,-134.58 150.92,-133.03 152.24,-139.9"/>
<text xml:space="preserve" text-anchor="middle" x="167.14" y="-175.62" font-family="Helvetica,sans-Serif" font-size="12.00" fill="#f8fafc">⏱ auto_escalate after 4 hours</text>
</g>
<!-- step_investigating&#45;&gt;step_escalated -->
<g id="edge8" class="edge">
<title>step_investigating&#45;&gt;step_escalated</title>
<path fill="none" stroke="#9ca3af" stroke-width="1.5" stroke-dasharray="1,5" d="M265.88,-198.9C261.03,-190.1 255.7,-181.19 250.14,-173.15 245.15,-165.92 239.12,-158.58 233.28,-151.98"/>
<polygon fill="none" stroke="#9ca3af" stroke-width="1.5" points="262.68,-200.35 270.48,-207.52 268.86,-197.05 262.68,-200.35"/>
<text xml:space="preserve" text-anchor="middle" x="314.9" y="-176.75" font-family="Helvetica,sans-Serif" font-size="12.00" fill="#f8fafc">↶ undo within 1 hour</text>
</g>
<!-- step_resolved -->
<g id="node5" class="node">
<title>step_resolved</title>
<polygon fill="#14532d" stroke="#86efac" stroke-width="2" points="398.04,-40 318.24,-40 318.24,-4 398.04,-4 398.04,-40"/>
<polygon fill="none" stroke="#86efac" stroke-width="2" points="402.04,-44 314.24,-44 314.24,0 402.04,0 402.04,-44"/>
<text xml:space="preserve" text-anchor="middle" x="358.14" y="-16.2" font-family="Helvetica,sans-Serif" font-size="14.00" fill="#f8fafc">resolved</text>
</g>
<!-- step_investigating&#45;&gt;step_resolved -->
<g id="edge5" class="edge">
<title>step_investigating&#45;&gt;step_resolved</title>
<path fill="none" stroke="#f8fafc" stroke-width="1.5" d="M360.93,-209.47C368.22,-203.1 374.87,-195.99 380.14,-188.15 410.99,-142.32 424.86,-116.79 403.14,-66 401.28,-61.65 398.75,-57.54 395.82,-53.7"/>
<polygon fill="#f8fafc" stroke="#f8fafc" stroke-width="1.5" points="398.65,-51.61 389.39,-46.45 393.41,-56.26 398.65,-51.61"/>
<text xml:space="preserve" text-anchor="middle" x="433.19" y="-122.05" font-family="Helvetica,sans-Serif" font-size="12.00" fill="#f8fafc">resolve</text>
</g>
<!-- step_investigating&#45;&gt;step_resolved -->
<g id="edge9" class="edge">
<title>step_investigating&#45;&gt;step_resolved</title>
<path fill="none" stroke="#9ca3af" stroke-width="1.5" stroke-dasharray="1,5" d="M414.21,-202.87C434.05,-189.46 451.52,-172.48 462.14,-151.15 479.9,-115.49 464.12,-92.24 434.14,-66 424.79,-57.81 413.63,-50.46 402.78,-44.24"/>
<polygon fill="none" stroke="#9ca3af" stroke-width="1.5" points="412.46,-199.84 405.89,-208.16 416.21,-205.75 412.46,-199.84"/>
<text xml:space="preserve" text-anchor="middle" x="525.48" y="-123.17" font-family="Helvetica,sans-Serif" font-size="12.00" fill="#f8fafc">↶ undo within 1 hour</text>
</g>
<!-- step_escalated&#45;&gt;step_resolved -->
<g id="edge7" class="edge">
<title>step_escalated&#45;&gt;step_resolved</title>
<path fill="none" stroke="#f8fafc" stroke-width="1.5" d="M201.68,-102.29C199,-90.29 198.45,-76.17 206.14,-66 217.86,-50.51 263.16,-38.99 301.28,-31.8"/>
<polygon fill="#f8fafc" stroke="#f8fafc" stroke-width="1.5" points="301.9,-35.24 311.12,-30.02 300.66,-28.35 301.9,-35.24"/>
<text xml:space="preserve" text-anchor="middle" x="225.64" y="-68.47" font-family="Helvetica,sans-Serif" font-size="12.00" fill="#f8fafc">resolve</text>
</g>
<!-- step_escalated&#45;&gt;step_resolved -->
<g id="edge10" class="edge">
<title>step_escalated&#45;&gt;step_resolved</title>
<path fill="none" stroke="#9ca3af" stroke-width="1.5" stroke-dasharray="1,5" d="M248.09,-94.63C260.1,-85.11 273.58,-74.83 286.39,-66 296.91,-58.75 308.68,-51.4 319.59,-44.88"/>
<polygon fill="none" stroke="#9ca3af" stroke-width="1.5" points="246.19,-91.67 240.58,-100.65 250.57,-97.13 246.19,-91.67"/>
<text xml:space="preserve" text-anchor="middle" x="342.27" y="-69.6" font-family="Helvetica,sans-Serif" font-size="12.00" fill="#f8fafc">↶ undo within 1 hour</text>
</g>
</g>
</svg>
